<svg width="16" height="16" viewBox="0 0 16 16" fill="none" xmlns="http://www.w3.org/2000/svg">
<path d="M12.8821 9.07755C13.2076 8.75215 13.7352 8.75215 14.0607 9.07755L14.9226 9.93948C15.248 10.2649 15.248 10.7925 14.9226 11.118L12.0202 14.0203C11.9504 14.0901 11.8615 14.1377 11.7647 14.1571L10.098 14.4904C9.93406 14.5232 9.76459 14.4719 9.64639 14.3537C9.52819 14.2355 9.47686 14.066 9.50966 13.9021L9.84299 12.2354C9.86239 12.1386 9.90993 12.0497 9.97973 11.9799L12.8821 9.07755Z" fill="#FFF0EB"/>
<path d="M7.5 2.66211C6.33544 1.9064 4.9647 1.49813 3.55534 1.50001C2.71993 1.50003 1.91636 1.63953 1.16927 1.89909C0.993375 1.96021 0.868455 2.11321 0.839842 2.29297L0.833328 2.37175V12.9733C0.833355 13.1351 0.911762 13.2871 1.04361 13.3809C1.17548 13.4746 1.34457 13.4984 1.49739 13.4453L1.74088 13.3665C2.3136 13.1939 2.92354 13.1009 3.55598 13.1009C5.00072 13.0989 6.396 13.5967 7.5 14.5V2.66211Z" fill="#FFF0EB"/>
<path d="M14.8307 1.89909C14.0837 1.63953 13.2801 1.50003 12.4447 1.50001C11.0353 1.49813 9.66453 1.9064 8.5 2.66211V13.7383L9.0488 11.9759C9.11027 11.7551 9.2278 11.5535 9.3906 11.3906L12.4193 8.37373C13.0739 7.83973 14.0395 7.87813 14.6497 8.48827L15.1667 9.0052V2.37175L15.1601 2.29297C15.1315 2.11321 15.0066 1.96021 14.8307 1.89909Z" fill="#FFF0EB"/>
</svg>
