<svg width="28" height="28" viewBox="0 0 28 28" fill="none" xmlns="http://www.w3.org/2000/svg">
<path d="M2.33334 12.2503C2.33334 11.3511 2.34905 10.4732 2.37895 9.62568C2.47663 6.85663 2.52548 5.4721 3.65176 4.33735C4.77804 3.2026 6.20166 3.14169 9.04891 3.01988C10.611 2.95304 12.2744 2.91699 14 2.91699C15.7256 2.91699 17.3889 2.95304 18.9511 3.01988C21.7984 3.14169 23.222 3.2026 24.3482 4.33735C25.4745 5.4721 25.5234 6.85663 25.6211 9.62568C25.6509 10.4732 25.6667 11.3511 25.6667 12.2503C25.6667 13.1496 25.6509 14.0274 25.6211 14.875C25.5234 17.6441 25.4745 19.0285 24.3482 20.1634C23.222 21.2981 21.7984 21.359 18.951 21.4808C18.0948 21.5174 17.2081 21.5448 16.2975 21.5621C15.4329 21.5784 15.0005 21.5867 14.6207 21.7314C14.2408 21.876 13.9213 22.1501 13.2819 22.6982L10.7392 24.8786C10.5849 25.0109 10.3882 25.0837 10.1849 25.0837C9.7146 25.0837 9.33334 24.7024 9.33334 24.2321V21.4925C9.23817 21.4887 9.14335 21.4848 9.0489 21.4808C6.20165 21.359 4.77804 21.2981 3.65176 20.1632C2.52548 19.0285 2.47663 17.6441 2.37895 14.875C2.34905 14.0274 2.33334 13.1496 2.33334 12.2503Z" stroke="#E2E8F0" stroke-width="1.5" stroke-linecap="round" stroke-linejoin="round"/>
<path d="M13.9591 7.61642C13.9682 7.57187 14.0319 7.57187 14.041 7.61642C14.5136 9.92891 16.3207 11.7361 18.6333 12.2087C18.6778 12.2178 18.6778 12.2815 18.6333 12.2906C16.3207 12.7632 14.5136 14.5704 14.041 16.883C14.0319 16.9274 13.9682 16.9274 13.9591 16.883C13.4864 14.5704 11.6793 12.7632 9.36676 12.2906C9.3222 12.2815 9.3222 12.2178 9.36676 12.2087C11.6793 11.7361 13.4864 9.92891 13.9591 7.61642Z" stroke="#E2E8F0" stroke-width="1.5" stroke-linejoin="round"/>
</svg>
