<svg width="26" height="24" viewBox="0 0 26 24" fill="none" xmlns="http://www.w3.org/2000/svg">
<path d="M12.5417 0C14.2791 0 15.9548 0.0363067 17.5296 0.103682L17.6071 0.1071C18.9688 0.165305 20.0922 0.213232 21.0103 0.398767C21.9911 0.596995 22.7991 0.96208 23.511 1.67936C24.9278 3.10697 24.9431 4.90052 25.0367 7.55257C25.0669 8.41056 25.0833 9.29895 25.0833 10.2083C25.0833 11.1177 25.0669 12.006 25.0367 12.8641C24.9431 15.5161 24.9278 17.3097 23.511 18.7372C22.7991 19.4546 21.9911 19.8197 21.0103 20.0179C20.0921 20.2034 18.969 20.2513 17.6071 20.3096L17.5296 20.313C16.6664 20.3499 15.7729 20.3776 14.8556 20.395C13.9257 20.4127 13.6772 20.4291 13.4736 20.5066C13.2696 20.5844 13.0801 20.7314 12.3935 21.3201L9.85059 23.5009C9.53762 23.7692 9.13834 23.9167 8.72607 23.9167C7.77291 23.9164 7.00026 23.1437 7 22.1906V20.2879C5.84989 20.2369 4.88199 20.1813 4.07308 20.0179C3.09224 19.8197 2.28419 19.4546 1.57227 18.7372C0.155528 17.3097 0.140268 15.5161 0.0467134 12.8641C0.0164384 12.006 0 11.1177 0 10.2083C0 9.29895 0.0164384 8.41056 0.0467134 7.55257C0.140268 4.90054 0.155528 3.10697 1.57227 1.67936C2.28419 0.96208 3.09224 0.596995 4.07308 0.398767C4.99118 0.213232 6.11447 0.165305 7.47623 0.1071L7.55371 0.103682C9.12858 0.0363067 10.8043 0 12.5417 0ZM13.4394 5.40039C13.2521 4.48376 12.0126 4.42598 11.694 5.22836L11.6439 5.40039C11.2664 7.24608 9.88995 8.71387 8.09717 9.22168L7.73373 9.31055C6.75623 9.51041 6.75614 10.9063 7.73373 11.1061C9.70241 11.5087 11.2413 13.0477 11.6439 15.0163C11.8438 15.9936 13.2395 15.9936 13.4394 15.0163C13.842 13.0477 15.381 11.5087 17.3496 11.1061C18.3272 10.9063 18.3272 9.51036 17.3496 9.31055C15.381 8.908 13.842 7.36898 13.4394 5.40039Z" fill="url(#paint0_linear_332_1226)"/>
<defs>
<linearGradient id="paint0_linear_332_1226" x1="-5.39768" y1="-4.73351" x2="29.0399" y2="19.9355" gradientUnits="userSpaceOnUse">
<stop stop-color="#FE6C76"/>
<stop offset="1" stop-color="#FCAF45"/>
</linearGradient>
</defs>
</svg>
