<svg width="16" height="16" viewBox="0 0 16 16" fill="none" xmlns="http://www.w3.org/2000/svg">
<g clip-path="url(#clip0_176_463)">
<path fill-rule="evenodd" clip-rule="evenodd" d="M7.82879 6.02269C7.35386 5.54778 6.58391 5.54778 6.10899 6.02269L5.68951 6.44216C5.2146 6.9171 5.2146 7.68704 5.68951 8.16197L11.8377 14.3102C12.3127 14.7851 13.0827 14.7851 13.5575 14.3102L13.977 13.8907C14.4519 13.4158 14.4519 12.6458 13.977 12.1709L7.82879 6.02269ZM6.81613 6.72977C6.90046 6.6454 7.03733 6.6454 7.12173 6.72977L8.76813 8.37624L8.04306 9.1013L6.39662 7.4549C6.31223 7.3705 6.31223 7.23364 6.39662 7.1493L6.81613 6.72977Z" fill="white"/>
<path d="M11.1667 0.333496C11.3759 0.333496 11.563 0.46376 11.6356 0.659978C11.8859 1.33636 12.1547 1.79626 12.5043 2.148C12.8537 2.49954 13.3163 2.7757 14.0069 3.03124C14.2031 3.10384 14.3333 3.29094 14.3333 3.50016C14.3333 3.70938 14.2031 3.89648 14.0069 3.96909C13.3305 4.21938 12.8706 4.48818 12.5188 4.83778C12.1673 5.18718 11.8911 5.64976 11.6356 6.34035C11.563 6.53656 11.3759 6.66683 11.1667 6.66683C10.9575 6.66683 10.7703 6.53656 10.6977 6.34035C10.4606 5.69952 10.1793 5.2309 9.8158 4.86532C9.45253 4.49992 8.98133 4.21141 8.32647 3.96909C8.13027 3.89648 8 3.70938 8 3.50016C8 3.29094 8.13027 3.10384 8.32647 3.03124C9.00287 2.78096 9.46273 2.51214 9.81453 2.16254C10.1661 1.81315 10.4422 1.35057 10.6977 0.659978C10.7703 0.463761 10.9575 0.333496 11.1667 0.333496Z" fill="white"/>
<path d="M3.83333 1.6665C4.04255 1.6665 4.22965 1.79677 4.30226 1.99298C4.48633 2.49044 4.67997 2.81753 4.9252 3.06427C5.17023 3.3108 5.49925 3.50975 6.00685 3.69758C6.20306 3.77018 6.33333 3.95728 6.33333 4.1665C6.33333 4.37572 6.20306 4.56282 6.00685 4.63543C5.50939 4.8195 5.1823 5.01314 4.93556 5.25838C4.68903 5.5034 4.49008 5.83242 4.30226 6.34002C4.22965 6.53624 4.04255 6.6665 3.83333 6.6665C3.62411 6.6665 3.43701 6.53624 3.3644 6.34002C3.18033 5.84257 2.98669 5.51548 2.74145 5.26874C2.49643 5.02221 2.16741 4.82326 1.65981 4.63543C1.4636 4.56282 1.33333 4.37572 1.33333 4.1665C1.33333 3.95728 1.4636 3.77018 1.65981 3.69758C2.15726 3.5135 2.48435 3.31986 2.73109 3.07463C2.97762 2.8296 3.17657 2.50058 3.3644 1.99298C3.43701 1.79677 3.62411 1.6665 3.83333 1.6665Z" fill="white"/>
</g>
<defs>
<clipPath id="clip0_176_463">
<rect width="16" height="16" fill="white"/>
</clipPath>
</defs>
</svg>
