<svg width="16" height="16" viewBox="0 0 16 16" fill="none" xmlns="http://www.w3.org/2000/svg">
<g clip-path="url(#clip0_19_327)">
<mask id="mask0_19_327" style="mask-type:luminance" maskUnits="userSpaceOnUse" x="0" y="0" width="16" height="16">
<path d="M15.8464 6.51581H8.17042V9.59156H12.581C12.5101 10.0268 12.3509 10.4551 12.1178 10.8455C11.8507 11.2929 11.5204 11.6335 11.182 11.8928C10.1681 12.6698 8.98599 12.8286 8.16506 12.8286C6.09127 12.8286 4.31936 11.4883 3.63341 9.66705C3.60573 9.60096 3.58735 9.53269 3.56496 9.46521C3.41338 9.00168 3.33056 8.51075 3.33056 8.00051C3.33056 7.46948 3.42025 6.96116 3.58377 6.48107C4.2288 4.58761 6.04066 3.17337 8.16655 3.17337C8.59415 3.17337 9.00593 3.22427 9.39641 3.32579C10.2888 3.5578 10.9201 4.01475 11.3069 4.37619L13.6408 2.0905C12.2211 0.788778 10.3704 1.96812e-09 8.16267 1.96812e-09C6.39777 -3.79862e-05 4.76833 0.549854 3.43307 1.47919C2.35021 2.23286 1.46211 3.24192 0.86275 4.41384C0.305261 5.50044 0 6.7046 0 7.99931C0 9.29407 0.305727 10.5107 0.863219 11.5873V11.5946C1.45207 12.7375 2.31316 13.7215 3.35974 14.4717C4.27403 15.1271 5.91344 16 8.16267 16C9.45614 16 10.6025 15.7668 11.6135 15.3298C12.3428 15.0145 12.989 14.6033 13.5741 14.0748C14.3471 13.3765 14.9525 12.5127 15.3657 11.519C15.779 10.5252 16 9.40147 16 8.18311C16 7.61571 15.943 7.03947 15.8464 6.51575V6.51581Z" fill="white"/>
</mask>
<g mask="url(#mask0_19_327)">
<g filter="url(#filter0_f_19_327)">
<path d="M-0.11792 8.05371C-0.109436 9.32804 0.25368 10.6428 0.803316 11.7042V11.7115C1.20045 12.4823 1.74323 13.0912 2.36144 13.6945L6.09527 12.3321C5.38885 11.9733 5.28106 11.7534 4.77467 11.3522C4.25719 10.8304 3.87151 10.2313 3.63131 9.52891H3.62164L3.63131 9.5216C3.4733 9.05776 3.45771 8.5654 3.45188 8.05371H-0.11792Z" fill="url(#paint0_radial_19_327)"/>
</g>
<g filter="url(#filter1_f_19_327)">
<path d="M8.17052 -0.0581055C7.80147 1.23842 7.94258 2.49869 8.17052 3.23197C8.59669 3.23229 9.00723 3.28309 9.3965 3.38429C10.2889 3.6163 10.9201 4.07326 11.3069 4.4347L13.7006 2.09062C12.2826 0.790449 10.5761 -0.056057 8.17052 -0.0581055Z" fill="url(#paint1_radial_19_327)"/>
</g>
<g filter="url(#filter2_f_19_327)">
<path d="M8.16244 -0.0683594C6.35223 -0.0683985 4.68097 0.495611 3.31142 1.44881C2.80291 1.80273 2.33626 2.21157 1.92073 2.66621C1.81188 3.68745 2.73562 4.94266 4.5649 4.93227C5.45246 3.89984 6.76513 3.23186 8.22615 3.23186C8.22748 3.23186 8.22878 3.23196 8.23011 3.23197L8.17044 -0.0681258C8.16775 -0.0681275 8.16513 -0.0683594 8.16244 -0.0683594Z" fill="url(#paint2_radial_19_327)"/>
</g>
<g filter="url(#filter3_f_19_327)">
<path d="M14.1371 8.42314L12.5213 9.53313C12.4504 9.96843 12.2911 10.3966 12.058 10.7871C11.7909 11.2345 11.4606 11.575 11.1222 11.8344C10.1104 12.6097 8.93143 12.7694 8.1107 12.77C7.26241 14.2148 7.11369 14.9385 8.17037 16.1046C9.4779 16.1036 10.6371 15.8676 11.6596 15.4256C12.3987 15.1061 13.0535 14.6894 13.6464 14.1538C14.4298 13.4461 15.0434 12.5708 15.4622 11.5637C15.881 10.5566 16.1049 9.4178 16.1049 8.18311L14.1371 8.42314Z" fill="url(#paint3_radial_19_327)"/>
</g>
<g filter="url(#filter4_f_19_327)">
<path d="M8.05103 6.39893V9.70839H15.8247C15.8931 9.25515 16.1192 8.66864 16.1192 8.1831C16.1192 7.6157 16.0623 6.92264 15.9656 6.39893H8.05103Z" fill="#3086FF"/>
</g>
<g filter="url(#filter5_f_19_327)">
<path d="M1.95783 2.54932C1.47811 3.07419 1.06829 3.66168 0.743343 4.29704C0.185862 5.38364 -0.119385 6.70465 -0.119385 7.99935C-0.119385 8.0176 -0.117875 8.03545 -0.117753 8.05366C0.129138 8.52704 3.2926 8.4364 3.45205 8.05366C3.45185 8.0358 3.44984 8.01839 3.44984 8.00049C3.44984 7.46946 3.53955 7.07806 3.70308 6.59797C3.90481 6.00579 4.22067 5.46047 4.62458 4.99063C4.71614 4.87374 4.96036 4.62244 5.03162 4.47171C5.05876 4.41429 4.98234 4.38207 4.97806 4.36186C4.97329 4.33925 4.87083 4.35743 4.84787 4.3406C4.77499 4.28714 4.63067 4.25922 4.54303 4.23441C4.35572 4.18137 4.04528 4.0644 3.87286 3.94316C3.32782 3.5599 2.47726 3.10211 1.95783 2.54932Z" fill="url(#paint4_radial_19_327)"/>
</g>
<g filter="url(#filter6_f_19_327)">
<path d="M3.88446 4.3641C5.14833 5.12969 5.5118 3.97766 6.3521 3.61717L4.89037 0.585938C4.35267 0.811934 3.84464 1.09271 3.37328 1.42078C2.66933 1.91072 2.04769 2.50859 1.53418 3.18898L3.88446 4.3641Z" fill="url(#paint5_radial_19_327)"/>
</g>
<g filter="url(#filter7_f_19_327)">
<path d="M4.39888 12.0979C2.7023 12.7104 2.43669 12.7323 2.28052 13.7838C2.57895 14.075 2.8996 14.3444 3.24033 14.5886C4.15462 15.244 5.91333 16.1169 8.16256 16.1169C8.1652 16.1169 8.16772 16.1166 8.17037 16.1166V12.7117C8.16866 12.7117 8.16671 12.7118 8.165 12.7118C7.32275 12.7118 6.6497 12.4906 5.95962 12.1059C5.78947 12.011 5.48078 12.2657 5.32387 12.1518C5.10744 11.9948 4.58659 12.2872 4.39888 12.0979Z" fill="url(#paint6_radial_19_327)"/>
</g>
<g opacity="0.5" filter="url(#filter8_f_19_327)">
<path d="M7.17676 12.6045V16.0577C7.49146 16.0946 7.81898 16.1169 8.16255 16.1169C8.50698 16.1169 8.84018 16.0993 9.16397 16.0667V12.6278C8.80112 12.6898 8.45938 12.7119 8.165 12.7119C7.82596 12.7119 7.49624 12.6724 7.17676 12.6045Z" fill="url(#paint7_linear_19_327)"/>
</g>
</g>
</g>
<defs>
<filter id="filter0_f_19_327" x="-0.587999" y="7.58363" width="7.15329" height="6.58103" filterUnits="userSpaceOnUse" color-interpolation-filters="sRGB">
<feFlood flood-opacity="0" result="BackgroundImageFix"/>
<feBlend mode="normal" in="SourceGraphic" in2="BackgroundImageFix" result="shape"/>
<feGaussianBlur stdDeviation="0.23504" result="effect1_foregroundBlur_19_327"/>
</filter>
<filter id="filter1_f_19_327" x="7.47352" y="-0.528185" width="6.69724" height="5.43308" filterUnits="userSpaceOnUse" color-interpolation-filters="sRGB">
<feFlood flood-opacity="0" result="BackgroundImageFix"/>
<feBlend mode="normal" in="SourceGraphic" in2="BackgroundImageFix" result="shape"/>
<feGaussianBlur stdDeviation="0.23504" result="effect1_foregroundBlur_19_327"/>
</filter>
<filter id="filter2_f_19_327" x="1.44203" y="-0.538439" width="7.25827" height="5.94089" filterUnits="userSpaceOnUse" color-interpolation-filters="sRGB">
<feFlood flood-opacity="0" result="BackgroundImageFix"/>
<feBlend mode="normal" in="SourceGraphic" in2="BackgroundImageFix" result="shape"/>
<feGaussianBlur stdDeviation="0.23504" result="effect1_foregroundBlur_19_327"/>
</filter>
<filter id="filter3_f_19_327" x="6.9557" y="7.71303" width="9.61936" height="8.86155" filterUnits="userSpaceOnUse" color-interpolation-filters="sRGB">
<feFlood flood-opacity="0" result="BackgroundImageFix"/>
<feBlend mode="normal" in="SourceGraphic" in2="BackgroundImageFix" result="shape"/>
<feGaussianBlur stdDeviation="0.23504" result="effect1_foregroundBlur_19_327"/>
</filter>
<filter id="filter4_f_19_327" x="7.58095" y="5.92885" width="9.00827" height="4.24973" filterUnits="userSpaceOnUse" color-interpolation-filters="sRGB">
<feFlood flood-opacity="0" result="BackgroundImageFix"/>
<feBlend mode="normal" in="SourceGraphic" in2="BackgroundImageFix" result="shape"/>
<feGaussianBlur stdDeviation="0.23504" result="effect1_foregroundBlur_19_327"/>
</filter>
<filter id="filter5_f_19_327" x="-0.589464" y="2.07924" width="6.0969" height="6.76633" filterUnits="userSpaceOnUse" color-interpolation-filters="sRGB">
<feFlood flood-opacity="0" result="BackgroundImageFix"/>
<feBlend mode="normal" in="SourceGraphic" in2="BackgroundImageFix" result="shape"/>
<feGaussianBlur stdDeviation="0.23504" result="effect1_foregroundBlur_19_327"/>
</filter>
<filter id="filter6_f_19_327" x="-1.77067" y="-2.71891" width="11.4276" height="10.6451" filterUnits="userSpaceOnUse" color-interpolation-filters="sRGB">
<feFlood flood-opacity="0" result="BackgroundImageFix"/>
<feBlend mode="normal" in="SourceGraphic" in2="BackgroundImageFix" result="shape"/>
<feGaussianBlur stdDeviation="1.65243" result="effect1_foregroundBlur_19_327"/>
</filter>
<filter id="filter7_f_19_327" x="1.81044" y="11.6141" width="6.83005" height="4.97287" filterUnits="userSpaceOnUse" color-interpolation-filters="sRGB">
<feFlood flood-opacity="0" result="BackgroundImageFix"/>
<feBlend mode="normal" in="SourceGraphic" in2="BackgroundImageFix" result="shape"/>
<feGaussianBlur stdDeviation="0.23504" result="effect1_foregroundBlur_19_327"/>
</filter>
<filter id="filter8_f_19_327" x="6.70668" y="12.1344" width="2.92746" height="4.45261" filterUnits="userSpaceOnUse" color-interpolation-filters="sRGB">
<feFlood flood-opacity="0" result="BackgroundImageFix"/>
<feBlend mode="normal" in="SourceGraphic" in2="BackgroundImageFix" result="shape"/>
<feGaussianBlur stdDeviation="0.23504" result="effect1_foregroundBlur_19_327"/>
</filter>
<radialGradient id="paint0_radial_19_327" cx="0" cy="0" r="1" gradientTransform="matrix(-0.332481 -7.96794 11.9541 -0.478149 6.02052 13.5744)" gradientUnits="userSpaceOnUse">
<stop offset="0.141612" stop-color="#1ABD4D"/>
<stop offset="0.247515" stop-color="#6EC30D"/>
<stop offset="0.311547" stop-color="#8AC502"/>
<stop offset="0.366013" stop-color="#A2C600"/>
<stop offset="0.445673" stop-color="#C8C903"/>
<stop offset="0.540305" stop-color="#EBCB03"/>
<stop offset="0.615636" stop-color="#F7CD07"/>
<stop offset="0.699345" stop-color="#FDCD04"/>
<stop offset="0.771242" stop-color="#FDCE05"/>
<stop offset="0.860566" stop-color="#FFCE0A"/>
</radialGradient>
<radialGradient id="paint1_radial_19_327" cx="0" cy="0" r="1" gradientTransform="matrix(5.64645 -1.35704e-05 -7.93631e-06 7.13951 13.4767 4.26509)" gradientUnits="userSpaceOnUse">
<stop offset="0.408458" stop-color="#FB4E5A"/>
<stop offset="1" stop-color="#FF4540"/>
</radialGradient>
<radialGradient id="paint2_radial_19_327" cx="0" cy="0" r="1" gradientTransform="matrix(-7.91108 4.28995 5.94584 10.5107 10.393 -1.10183)" gradientUnits="userSpaceOnUse">
<stop offset="0.231273" stop-color="#FF4541"/>
<stop offset="0.311547" stop-color="#FF4540"/>
<stop offset="0.457516" stop-color="#FF4640"/>
<stop offset="0.540305" stop-color="#FF473F"/>
<stop offset="0.699346" stop-color="#FF5138"/>
<stop offset="0.771242" stop-color="#FF5B33"/>
<stop offset="0.860566" stop-color="#FF6C29"/>
<stop offset="1" stop-color="#FF8C18"/>
</radialGradient>
<radialGradient id="paint3_radial_19_327" cx="0" cy="0" r="1" gradientTransform="matrix(-14.347 -18.3365 -6.9131 5.18501 8.28798 15.0691)" gradientUnits="userSpaceOnUse">
<stop offset="0.131546" stop-color="#0CBA65"/>
<stop offset="0.209784" stop-color="#0BB86D"/>
<stop offset="0.297297" stop-color="#09B479"/>
<stop offset="0.396257" stop-color="#08AD93"/>
<stop offset="0.477124" stop-color="#0AA6A9"/>
<stop offset="0.568425" stop-color="#0D9CC6"/>
<stop offset="0.667385" stop-color="#1893DD"/>
<stop offset="0.768727" stop-color="#258BF1"/>
<stop offset="0.858506" stop-color="#3086FF"/>
</radialGradient>
<radialGradient id="paint4_radial_19_327" cx="0" cy="0" r="1" gradientTransform="matrix(-1.0153 8.56811 12.1001 1.37445 7.46934 1.44274)" gradientUnits="userSpaceOnUse">
<stop offset="0.366013" stop-color="#FF4E3A"/>
<stop offset="0.457516" stop-color="#FF8A1B"/>
<stop offset="0.540305" stop-color="#FFA312"/>
<stop offset="0.615636" stop-color="#FFB60C"/>
<stop offset="0.771242" stop-color="#FFCD0A"/>
<stop offset="0.860566" stop-color="#FECF0A"/>
<stop offset="0.915033" stop-color="#FECF08"/>
<stop offset="1" stop-color="#FDCD01"/>
</radialGradient>
<radialGradient id="paint5_radial_19_327" cx="0" cy="0" r="1" gradientTransform="matrix(-2.93475 3.17785 -9.15481 -8.1044 6.04146 1.35384)" gradientUnits="userSpaceOnUse">
<stop offset="0.315904" stop-color="#FF4C3C"/>
<stop offset="0.603818" stop-color="#FF692C"/>
<stop offset="0.726837" stop-color="#FF7825"/>
<stop offset="0.884534" stop-color="#FF8D1B"/>
<stop offset="1" stop-color="#FF9F13"/>
</radialGradient>
<radialGradient id="paint6_radial_19_327" cx="0" cy="0" r="1" gradientTransform="matrix(-7.91108 -4.28994 5.94584 -10.5106 10.393 17.1017)" gradientUnits="userSpaceOnUse">
<stop offset="0.231273" stop-color="#0FBC5F"/>
<stop offset="0.311547" stop-color="#0FBC5F"/>
<stop offset="0.366013" stop-color="#0FBC5E"/>
<stop offset="0.457516" stop-color="#0FBC5D"/>
<stop offset="0.540305" stop-color="#12BC58"/>
<stop offset="0.699346" stop-color="#28BF3C"/>
<stop offset="0.771242" stop-color="#38C02B"/>
<stop offset="0.860566" stop-color="#52C218"/>
<stop offset="0.915033" stop-color="#67C30F"/>
<stop offset="1" stop-color="#86C504"/>
</radialGradient>
<linearGradient id="paint7_linear_19_327" x1="7.17676" y1="14.3607" x2="9.16397" y2="14.3607" gradientUnits="userSpaceOnUse">
<stop stop-color="#0FBC5C"/>
<stop offset="1" stop-color="#0CBA65"/>
</linearGradient>
<clipPath id="clip0_19_327">
<rect width="16" height="16" fill="white"/>
</clipPath>
</defs>
</svg>
