<svg width="28" height="28" viewBox="0 0 28 28" fill="none" xmlns="http://www.w3.org/2000/svg">
<path d="M6.22287 3.50001C9.09341 3.496 11.8639 4.53494 14.0007 6.41667V24.5C11.8639 22.6183 9.09341 21.5794 6.22287 21.5833C4.40052 21.5833 3.48936 21.5833 3.08679 21.3257C2.8451 21.171 2.74635 21.0722 2.59165 20.8305C2.33398 20.428 2.33398 19.7098 2.33398 18.2734V7.47042C2.33398 5.80467 2.33398 4.9718 2.97418 4.29667C3.61438 3.62154 4.26975 3.58671 5.58049 3.51703C5.79315 3.50573 6.00733 3.50001 6.22287 3.50001Z" stroke="#E2E8F0" stroke-width="1.5" stroke-linecap="round" stroke-linejoin="round"/>
<path d="M21.7778 3.50001C18.9072 3.496 16.1368 4.53494 14 6.41667V24.5C16.1368 22.6183 18.9072 21.5794 21.7778 21.5833C23.6002 21.5833 24.5113 21.5833 24.9138 21.3257C25.1556 21.171 25.2543 21.0722 25.409 20.8305C25.6667 20.428 25.6667 19.7098 25.6667 18.2734V7.47042C25.6667 5.80467 25.6667 4.9718 25.0265 4.29667C24.3863 3.62154 23.7309 3.58671 22.4202 3.51703C22.2075 3.50573 21.9933 3.50001 21.7778 3.50001Z" stroke="#E2E8F0" stroke-width="1.5" stroke-linecap="round" stroke-linejoin="round"/>
</svg>
