<svg width="28" height="28" viewBox="0 0 28 28" fill="none" xmlns="http://www.w3.org/2000/svg">
<path d="M6.2225 2.62501C8.68889 2.62173 11.0877 3.33619 13.1257 4.6587V25.375C11.1937 23.7943 8.75194 22.9231 6.22363 22.9266H6.20655C5.31618 22.9266 4.60384 22.9266 4.0669 22.8925C3.63041 22.8647 3.00189 22.7212 2.6154 22.5312C2.47062 22.4386 2.32617 22.3355 2.18816 22.1975C2.05014 22.0594 1.94701 21.915 1.85434 21.7702C1.60415 21.379 1.52891 20.9165 1.4943 20.4771C1.45899 20.0282 1.45899 19.4527 1.45899 18.7556V7.46941C1.45899 6.66399 1.45664 5.95831 1.55013 5.37306C1.65112 4.7411 1.87127 4.18767 2.33968 3.6937C3.25725 2.72613 4.28945 2.70826 5.53434 2.6421C5.76225 2.62999 5.9917 2.62502 6.2225 2.62501Z" fill="url(#paint0_linear_332_1296)"/>
<path d="M21.7782 2.62501C19.3118 2.62173 16.9129 3.33619 14.875 4.6587V25.375C16.807 23.7943 19.2487 22.9231 21.777 22.9266H21.7942C22.6844 22.9266 23.3968 22.9266 23.9338 22.8925C24.3703 22.8647 24.9988 22.7212 25.3853 22.5312C25.5301 22.4386 25.6745 22.3355 25.8125 22.1975C25.9505 22.0594 26.0536 21.915 26.1463 21.7702C26.3965 21.379 26.4718 20.9165 26.5063 20.4771C26.5417 20.0282 26.5417 19.4527 26.5417 18.7556V7.46941C26.5417 6.66399 26.544 5.95831 26.4505 5.37306C26.3495 4.7411 26.1294 4.18767 25.6609 3.6937C24.7434 2.72613 23.7112 2.70826 22.4664 2.6421C22.2384 2.62999 22.0089 2.62502 21.7782 2.62501Z" fill="url(#paint1_linear_332_1296)"/>
<defs>
<linearGradient id="paint0_linear_332_1296" x1="-1.05157" y1="-1.8776" x2="20.5366" y2="5.68403" gradientUnits="userSpaceOnUse">
<stop stop-color="#FE6C76"/>
<stop offset="1" stop-color="#FCAF45"/>
</linearGradient>
<linearGradient id="paint1_linear_332_1296" x1="12.3645" y1="-1.8776" x2="33.9526" y2="5.68401" gradientUnits="userSpaceOnUse">
<stop stop-color="#FE6C76"/>
<stop offset="1" stop-color="#FCAF45"/>
</linearGradient>
</defs>
</svg>
