<svg width="23" height="24" viewBox="0 0 23 24" fill="none" xmlns="http://www.w3.org/2000/svg">
<path d="M11.375 0C11.9454 0 12.4998 0.18788 12.9529 0.534345L21.491 7.06266L21.6357 7.18002C22.3411 7.78735 22.75 8.67446 22.75 9.61133V20.7083C22.75 22.4803 21.3136 23.9167 19.5417 23.9167H3.20833C1.43642 23.9167 0 22.4803 0 20.7083V9.61133C2.33333e-05 8.61215 0.465302 7.66968 1.25895 7.06266L9.79708 0.534345L9.97138 0.411297C10.3888 0.143325 10.8759 0 11.375 0ZM15.7956 17.075C15.4245 16.5984 14.7573 16.4885 14.2563 16.8027C13.5322 17.3664 12.462 17.7917 11.375 17.7917C10.4238 17.7917 9.56025 17.5188 8.87419 17.0728L8.49365 16.8027C7.99275 16.4886 7.32545 16.5984 6.95443 17.075C6.58341 17.5518 6.64051 18.2264 7.06835 18.6348L7.37598 18.874C8.4847 19.6638 9.87782 20.125 11.375 20.125C12.9717 20.125 14.5403 19.5231 15.6816 18.6348C16.1096 18.2262 16.1667 17.5519 15.7956 17.075Z" fill="url(#paint0_linear_332_1188)"/>
<defs>
<linearGradient id="paint0_linear_332_1188" x1="-4.89557" y1="-4.73351" x2="28.3378" y2="16.8583" gradientUnits="userSpaceOnUse">
<stop stop-color="#FE6C76"/>
<stop offset="1" stop-color="#FCAF45"/>
</linearGradient>
</defs>
</svg>
