<svg width="42" height="32" viewBox="0 0 42 32" fill="none" xmlns="http://www.w3.org/2000/svg">
<path d="M2.52625 22.737C1.68984 17.3003 0.853426 11.8637 0.0170133 6.42692C-0.168474 5.22173 1.20281 4.39976 2.17824 5.1314C4.78414 7.08582 7.3899 9.04011 9.9958 10.9945C10.8538 11.638 12.0762 11.4286 12.671 10.5362L19.1793 0.773747C19.8671 -0.257916 21.3829 -0.257916 22.0706 0.773747L28.5789 10.5362C29.1738 11.4286 30.3961 11.6379 31.2541 10.9945C33.86 9.04011 36.4658 7.08582 39.0717 5.1314C40.0471 4.39976 41.4184 5.22173 41.2331 6.42692C40.3966 11.8637 39.5602 17.3003 38.7238 22.737H2.52625Z" fill="#FFB743"/>
<path d="M36.8366 31.7862H4.41355C3.3713 31.7862 2.52637 30.9413 2.52637 29.899V25.7534H38.7239V29.899C38.7238 30.9413 37.8789 31.7862 36.8366 31.7862Z" fill="#FFB743"/>
</svg>
