<svg width="16" height="16" viewBox="0 0 16 16" fill="none" xmlns="http://www.w3.org/2000/svg">
<g clip-path="url(#clip0_216_438)">
<path fill-rule="evenodd" clip-rule="evenodd" d="M8.11708 0.837876C8.03914 0.832036 7.96088 0.832036 7.88294 0.837876C7.54721 0.863036 7.27514 1.01453 7.02654 1.20902C6.79274 1.39196 6.53406 1.65065 6.23154 1.9532L5.72439 2.38742C5.72439 2.38742 5.45244 2.42279 5.0218 2.42279C4.54766 2.42276 4.1424 2.42274 3.81854 2.46629C3.47275 2.51278 3.14592 2.617 2.88138 2.88154C2.61685 3.14607 2.51262 3.4729 2.46614 3.8187C2.42259 4.14255 2.42261 4.54781 2.42264 5.02195L2.38727 5.72454L1.95305 6.2317C1.65052 6.5342 1.3918 6.7929 1.20887 7.0267C1.01438 7.2753 0.862884 7.54736 0.837724 7.8831C0.831884 7.96103 0.831884 8.0393 0.837724 8.11723C0.862884 8.45296 1.01438 8.72503 1.20887 8.97363C1.39181 9.20743 1.6505 9.4661 1.95305 9.76863L2.38727 10.2758L2.42264 10.9784C2.42261 11.4525 2.42259 11.8578 2.46614 12.1816C2.51262 12.5274 2.61685 12.8542 2.88138 13.1188C3.14592 13.3833 3.47275 13.4876 3.81854 13.534C4.1424 13.5776 4.54766 13.5776 5.0218 13.5776L5.72439 13.6129L6.23154 14.0471C6.53404 14.3496 6.79274 14.6084 7.02654 14.7913C7.27514 14.9858 7.54721 15.1373 7.88294 15.1624C7.96088 15.1683 8.03914 15.1683 8.11708 15.1624C8.45281 15.1373 8.72488 14.9858 8.97348 14.7913C9.20728 14.6084 9.46594 14.3496 9.76848 14.0471L10.2756 13.6129L10.9782 13.5776C11.4523 13.5776 11.8576 13.5776 12.1815 13.534C12.5273 13.4876 12.8541 13.3833 13.1186 13.1188C13.3831 12.8542 13.4874 12.5274 13.5339 12.1816C13.5774 11.8578 13.5774 11.4525 13.5774 10.9784L13.6127 10.2758L14.047 9.76863C14.3495 9.4661 14.6082 9.20743 14.7911 8.97363C14.9857 8.72503 15.1371 8.45296 15.1623 8.11723C15.1681 8.0393 15.1681 7.96103 15.1623 7.8831C15.1371 7.54736 14.9857 7.2753 14.7911 7.0267C14.6082 6.7929 14.3495 6.5342 14.0469 6.23167L13.6127 5.72454L13.5774 5.02196C13.5774 4.54782 13.5774 4.14255 13.5339 3.8187C13.4874 3.4729 13.3831 3.14607 13.1186 2.88154C12.8541 2.617 12.5273 2.51278 12.1815 2.46629C11.8576 2.42274 11.4523 2.42276 10.9782 2.42279C10.5476 2.42279 10.2365 2.37122 10.2365 2.37122L9.76848 1.9532C9.46594 1.65065 9.20728 1.39196 8.97348 1.20902C8.72488 1.01453 8.45281 0.863036 8.11708 0.837876ZM8.00001 5.16683C6.4352 5.16683 5.16668 6.43536 5.16668 8.00016C5.16668 9.56496 6.4352 10.8335 8.00001 10.8335C9.56481 10.8335 10.8333 9.56496 10.8333 8.00016C10.8333 6.43536 9.56481 5.16683 8.00001 5.16683Z" fill="white"/>
</g>
<defs>
<clipPath id="clip0_216_438">
<rect width="16" height="16" fill="white"/>
</clipPath>
</defs>
</svg>
