<svg width="25" height="26" viewBox="0 0 25 26" fill="none" xmlns="http://www.w3.org/2000/svg">
<path fill-rule="evenodd" clip-rule="evenodd" d="M1.16667 0C0.52234 0 0 0.52234 0 1.16667C0 1.81099 0.52234 2.33333 1.16667 2.33333H3.10654L5.78349 17.3243L5.07062 18.75C3.5044 19.0981 2.33333 20.4956 2.33333 22.1667C2.33333 24.0997 3.90034 25.6667 5.83333 25.6667C7.35726 25.6667 8.6537 24.6927 9.13417 23.3333H14.1991C14.6796 24.6927 15.9761 25.6667 17.5 25.6667C19.4331 25.6667 21 24.0997 21 22.1667C21 20.2336 19.4331 18.6667 17.5 18.6667C15.9761 18.6667 14.6796 19.6406 14.1991 21H9.13417C8.84498 20.1818 8.26016 19.5032 7.50807 19.0926L7.92904 18.2506L20.5409 16.4411C20.9202 16.3868 21.2199 16.0919 21.2806 15.7136L22.8657 5.83333H23.3333C23.9777 5.83333 24.5 5.31099 24.5 4.66667C24.5 4.02234 23.9777 3.5 23.3333 3.5H5.68512L5.23183 0.961578C5.13247 0.40516 4.64855 0 4.08333 0H1.16667ZM16.3333 22.1667C16.3333 22.811 16.8556 23.3333 17.5 23.3333C18.1444 23.3333 18.6667 22.811 18.6667 22.1667C18.6667 21.5223 18.1444 21 17.5 21C16.8556 21 16.3333 21.5223 16.3333 22.1667ZM7 22.1667C7 21.5279 6.48676 21.0091 5.8502 21.0001C5.83867 21.0003 5.82711 21.0003 5.81555 21.0001C5.17942 21.0097 4.66667 21.5283 4.66667 22.1667C4.66667 22.811 5.18901 23.3333 5.83333 23.3333C6.47766 23.3333 7 22.811 7 22.1667Z" fill="url(#paint0_linear_332_1336)"/>
<defs>
<linearGradient id="paint0_linear_332_1336" x1="-5.27215" y1="-5.07986" x2="30.4434" y2="18.2057" gradientUnits="userSpaceOnUse">
<stop stop-color="#FE6C76"/>
<stop offset="1" stop-color="#FCAF45"/>
</linearGradient>
</defs>
</svg>
