<svg width="28" height="28" viewBox="0 0 28 28" fill="none" xmlns="http://www.w3.org/2000/svg">
<path d="M2.33398 2.33325H5.25065L8.16732 18.6666L7.00065 20.9999" stroke="#E2E8F0" stroke-width="1.5" stroke-linecap="round" stroke-linejoin="round"/>
<path d="M6.99935 25.6667C8.28801 25.6667 9.33268 24.622 9.33268 23.3333C9.33268 22.0446 8.28801 21 6.99935 21C5.71068 21 4.66602 22.0446 4.66602 23.3333C4.66602 24.622 5.71068 25.6667 6.99935 25.6667Z" stroke="#E2E8F0" stroke-width="1.5" stroke-linecap="round" stroke-linejoin="round"/>
<path d="M18.6673 25.6667C19.956 25.6667 21.0007 24.622 21.0007 23.3333C21.0007 22.0446 19.956 21 18.6673 21C17.3786 21 16.334 22.0446 16.334 23.3333C16.334 24.622 17.3786 25.6667 18.6673 25.6667Z" stroke="#E2E8F0" stroke-width="1.5" stroke-linecap="round" stroke-linejoin="round"/>
<path d="M9.33398 23.3333H16.334" stroke="#E2E8F0" stroke-width="1.5" stroke-linecap="round" stroke-linejoin="round"/>
<path d="M8.04304 17.8005C7.5647 17.8691 7.23255 18.3125 7.30118 18.7908C7.36982 19.2692 7.81323 19.6013 8.29159 19.5327L8.04304 17.8005ZM21.584 16.7416L21.7082 17.6077C22.0875 17.5534 22.3872 17.2585 22.4479 16.8802L21.584 16.7416ZM24.5007 6.70825C24.9839 6.70825 25.3757 6.3165 25.3757 5.83325C25.3757 5.35001 24.9839 4.95825 24.5007 4.95825V6.70825ZM8.29159 19.5327L21.7082 17.6077L21.4597 15.8755L8.04304 17.8005L8.29159 19.5327ZM22.4479 16.8802L24.1979 5.97185L22.4701 5.69465L20.7201 16.603L22.4479 16.8802ZM5.83398 6.70825H23.334V4.95825H5.83398V6.70825ZM23.334 6.70825H24.5007V4.95825H23.334V6.70825Z" fill="#E2E8F0"/>
</svg>
