<svg width="28" height="28" viewBox="0 0 28 28" fill="none" xmlns="http://www.w3.org/2000/svg">
<path fill-rule="evenodd" clip-rule="evenodd" d="M14.0701 3.79102H5.94867C5.20288 3.79095 4.53279 3.79089 3.99042 3.86343C3.39828 3.94264 2.79079 4.12653 2.29319 4.62157C1.79559 5.11661 1.61073 5.72096 1.53112 6.31004C1.4582 6.84961 1.45826 7.51623 1.45833 8.25819L1.45834 17.4478C1.45831 17.9387 1.45827 18.3803 1.49164 18.7465C1.52745 19.1396 1.60877 19.5554 1.84022 19.9543C2.09039 20.3853 2.45021 20.7433 2.88352 20.9921C3.2844 21.2224 4.07575 21.3259 4.47083 21.3616C4.95803 23.0068 6.48763 24.2077 8.2992 24.2077C10.1069 24.2077 11.6339 23.0119 12.1245 21.372H15.8754C16.366 23.0119 17.8929 24.2077 19.7006 24.2077C21.5122 24.2077 23.0418 23.0068 23.529 21.3616C23.924 21.3259 24.7154 21.2224 25.1162 20.9921C25.5497 20.7433 25.9095 20.3853 26.1596 19.9543C26.3911 19.5554 26.4724 19.1396 26.5082 18.7465C26.5416 18.3803 26.5416 17.9386 26.5414 17.4478L26.5416 14.2866C26.5423 13.9071 26.5428 13.523 26.4381 13.1465C26.3333 12.7702 26.134 12.4412 25.9372 12.116L23.9316 8.79063C23.7084 8.42055 23.5012 8.0769 23.2971 7.80269C23.0712 7.49915 22.8001 7.21054 22.4169 6.99475C22.0338 6.77895 21.6456 6.69614 21.2677 6.6596C20.9264 6.62659 20.5237 6.62664 20.0899 6.62667H18.5215C18.4419 6.03759 18.2232 5.11661 17.7256 4.62157C17.2281 4.12653 16.6206 3.94264 16.0284 3.86343C15.486 3.79089 14.816 3.79095 14.0701 3.79102ZM18.5613 16.4323C18.9226 16.3253 19.3053 16.2678 19.7015 16.2678C21.5047 16.2678 23.0286 17.4578 23.5232 19.0914C24.0492 19.0914 24.262 18.7465 24.262 18.5364V13.7521L21.295 8.89519H18.5613V16.4323ZM8.30005 18.5364C7.35553 18.5364 6.58985 19.2981 6.58985 20.2378C6.58985 21.1774 7.35553 21.9392 8.30005 21.9392C9.24458 21.9392 10.0103 21.1774 10.0103 20.2378C10.0103 19.2981 9.24458 18.5364 8.30005 18.5364ZM17.9913 20.2378C17.9913 19.2981 18.757 18.5364 19.7015 18.5364C20.646 18.5364 21.4117 19.2981 21.4117 20.2378C21.4117 21.1774 20.646 21.9392 19.7015 21.9392C18.757 21.9392 17.9913 21.1774 17.9913 20.2378Z" fill="url(#paint0_linear_856_131)"/>
<defs>
<linearGradient id="paint0_linear_856_131" x1="-3.93935" y1="-0.249784" x2="26.6382" y2="25.4091" gradientUnits="userSpaceOnUse">
<stop stop-color="#FE6C76"/>
<stop offset="1" stop-color="#FCAF45"/>
</linearGradient>
</defs>
</svg>
