<svg width="28" height="28" viewBox="0 0 28 28" fill="none" xmlns="http://www.w3.org/2000/svg">
<path d="M22.75 20.4167C22.75 22.0275 21.4442 23.3333 19.8333 23.3333C18.2225 23.3333 16.9167 22.0275 16.9167 20.4167C16.9167 18.8059 18.2225 17.5 19.8333 17.5C21.4442 17.5 22.75 18.8059 22.75 20.4167Z" stroke="#E2E8F0" stroke-width="1.5"/>
<path d="M11.0833 20.4167C11.0833 22.0275 9.7775 23.3333 8.16667 23.3333C6.55584 23.3333 5.25 22.0275 5.25 20.4167C5.25 18.8059 6.55584 17.5 8.16667 17.5C9.7775 17.5 11.0833 18.8059 11.0833 20.4167Z" stroke="#E2E8F0" stroke-width="1.5"/>
<path d="M16.9167 20.417H11.0833M17.5 18.0837V8.16699C17.5 6.51708 17.5 5.69212 16.9875 5.17956C16.4748 4.66699 15.6499 4.66699 14 4.66699H5.83333C4.18342 4.66699 3.35846 4.66699 2.84589 5.17956C2.33333 5.69212 2.33333 6.51708 2.33333 8.16699V17.5003C2.33333 18.5907 2.33333 19.1359 2.56778 19.542C2.72137 19.808 2.94229 20.029 3.20833 20.1825C3.61442 20.417 4.15961 20.417 5.25 20.417M18.0833 7.58366H20.185C21.1529 7.58366 21.6369 7.58366 22.0381 7.81081C22.4392 8.03796 22.6883 8.45294 23.1862 9.28292L25.1679 12.5857C25.4157 12.9987 25.5396 13.2054 25.6032 13.4346C25.6667 13.6639 25.6667 13.9047 25.6667 14.3865V17.5003C25.6667 18.5907 25.6667 19.1359 25.4322 19.542C25.2786 19.808 25.0577 20.029 24.7917 20.1825C24.3855 20.417 23.8404 20.417 22.75 20.417" stroke="#E2E8F0" stroke-width="1.5" stroke-linecap="round" stroke-linejoin="round"/>
</svg>
