<svg width="28" height="28" viewBox="0 0 28 28" fill="none" xmlns="http://www.w3.org/2000/svg">
<path d="M18.0833 12.2503C18.0833 14.5055 16.2552 16.3337 14 16.3337C11.7448 16.3337 9.91667 14.5055 9.91667 12.2503C9.91667 9.99516 11.7448 8.16699 14 8.16699C16.2552 8.16699 18.0833 9.99516 18.0833 12.2503Z" stroke="#E2E8F0" stroke-width="1.5" stroke-linejoin="round"/>
<path d="M14 2.33301C8.52317 2.33301 4.08333 6.55384 4.08333 11.7605C4.08333 17.4311 9.58901 20.2637 12.9607 24.2733C13.4947 24.9082 14.5286 24.925 15.0746 24.3004C18.5086 20.3713 23.9167 17.3218 23.9167 11.7605C23.9167 6.55384 19.4768 2.33301 14 2.33301Z" stroke="#E2E8F0" stroke-width="1.5" stroke-linejoin="round"/>
</svg>
