<svg width="28" height="28" viewBox="0 0 28 28" fill="none" xmlns="http://www.w3.org/2000/svg">
<path fill-rule="evenodd" clip-rule="evenodd" d="M14 1.45801C8.35384 1.45801 3.79167 6.07886 3.79167 11.7605C3.79167 15.021 5.09183 17.5645 7.58635 19.775C9.20929 21.2132 12.1246 24.271 13.2529 26.1217C13.4092 26.378 13.6861 26.5363 13.9862 26.5411C14.2865 26.5458 14.5682 26.3962 14.7324 26.1448C15.9336 24.3067 18.8064 21.1993 20.4136 19.775C22.9082 17.5645 24.2083 15.021 24.2083 11.7605C24.2083 6.07886 19.6462 1.45801 14 1.45801ZM14.0411 15.7497C16.2962 15.7497 18.1244 13.9215 18.1244 11.6663C18.1244 9.41117 16.2962 7.58301 14.0411 7.58301C11.7859 7.58301 9.95769 9.41117 9.95769 11.6663C9.95769 13.9215 11.7859 15.7497 14.0411 15.7497Z" fill="url(#paint0_linear_856_2526)"/>
<defs>
<linearGradient id="paint0_linear_856_2526" x1="-0.601788" y1="-3.50638" x2="31.7983" y2="14.5064" gradientUnits="userSpaceOnUse">
<stop stop-color="#FE6C76"/>
<stop offset="1" stop-color="#FCAF45"/>
</linearGradient>
</defs>
</svg>
